<?xml version="1.0" encoding="UTF-8"?>
<svg version="1.1" xmlns="http://www.w3.org/2000/svg" width="128" height="128">
<path d="M0 0 C1.84505532 -0.00337459 3.69010847 -0.00823254 5.53515625 -0.01449585 C9.3882377 -0.0218369 13.24073667 -0.01125158 17.09375 0.01220703 C22.0096677 0.04069331 26.92422016 0.02427438 31.84008789 -0.00565529 C35.64593621 -0.02380354 39.45146581 -0.01793592 43.25732422 -0.00501633 C45.06884934 -0.00170307 46.88040428 -0.00569541 48.69189453 -0.01741409 C66.70256523 -0.10838369 66.70256523 -0.10838369 75 5.6640625 C76.0725 6.3653125 77.145 7.0665625 78.25 7.7890625 C87.92064149 17.89927861 87.87034706 28.07551581 87.7265625 41.26953125 C87.72552318 43.16278583 87.72656677 45.05604258 87.72958374 46.94929504 C87.7294052 50.89906427 87.70872907 54.84800937 87.67236328 58.79760742 C87.62689648 63.84472837 87.62592668 68.89065282 87.63939857 73.93792248 C87.64609843 77.8406273 87.63278179 81.7430622 87.61314011 85.64571571 C87.60547771 87.50632628 87.60312231 89.36696695 87.6063118 91.22759056 C87.60705841 93.83093357 87.58167503 96.43277303 87.54931641 99.03588867 C87.55427124 99.79400848 87.55922607 100.5521283 87.56433105 101.33322144 C87.4094169 109.19084851 83.89477404 115.29872215 78.71484375 121.05859375 C72.39981562 126.97084105 66.4226083 128.81038428 57.90771484 128.85693359 C56.67053207 128.86919983 56.67053207 128.86919983 55.40835571 128.88171387 C52.6758903 128.90654524 49.94347689 128.92308096 47.2109375 128.9375 C46.27612171 128.94282368 45.34130592 128.94814735 44.37816238 128.95363235 C39.42708405 128.98035821 34.47603084 128.99973215 29.52490234 129.01416016 C25.43548124 129.02748233 21.34656112 129.05530394 17.25732422 129.09619141 C12.31305462 129.14562537 7.36923838 129.17029481 2.42473221 129.17738724 C0.54534584 129.18408226 -1.33403111 129.19925855 -3.21327591 129.22327805 C-22.04108577 129.45013307 -22.04108577 129.45013307 -29 123.6640625 C-29.82113281 123.01824219 -30.64226563 122.37242188 -31.48828125 121.70703125 C-32.09027344 121.09472656 -32.69226563 120.48242188 -33.3125 119.8515625 C-34.23482422 118.94470703 -34.23482422 118.94470703 -35.17578125 118.01953125 C-39.81137881 112.03395238 -41.59880621 106.62673344 -41.53344727 99.11181641 C-41.54206284 98.29765762 -41.55067841 97.48349884 -41.55955505 96.64466858 C-41.58209742 93.97632256 -41.57549721 91.30903707 -41.56640625 88.640625 C-41.57164767 86.77029105 -41.57792604 84.89995975 -41.58518982 83.02963257 C-41.59557288 79.11760992 -41.59106368 75.20595149 -41.57641602 71.29394531 C-41.55924617 66.30178647 -41.58271217 61.31078061 -41.61790562 56.31875038 C-41.63995898 52.45802303 -41.63841875 48.59756808 -41.6301403 44.73679733 C-41.62932484 42.89735018 -41.63611011 41.0578822 -41.65091133 39.21849442 C-41.73264128 27.22267973 -41.19133502 18.17420514 -32.8125 8.8515625 C-22.80483218 -0.14917195 -12.77885354 -0.08266748 0 0 Z " fill="#032352" transform="translate(41,-0.6640625)"/>
<path d="M0 0 C4.59835567 1.79842013 7.48189753 5.48957317 10.66992188 9.09960938 C13.2893046 11.88200885 14.64460362 12.95218883 18.484375 13.46875 C23.27109288 14.19207626 24.92366711 16.3484127 27.9375 19.9375 C28.43056641 20.48857422 28.92363281 21.03964844 29.43164062 21.60742188 C33 25.68059769 33 25.68059769 33 28 C29.60807637 27.40716379 27.7892243 26.23256811 25.25 23.9375 C24.63640625 23.38964844 24.0228125 22.84179688 23.390625 22.27734375 C22.70226562 21.64505859 22.70226562 21.64505859 22 21 C25.38625431 27.83114506 28.56519785 31.73736584 35.171875 35.60546875 C35.77515625 36.06566406 36.3784375 36.52585938 37 37 C37 37.99 37 38.98 37 40 C31.2630687 39.34097107 27.53051385 37.16346526 22.68359375 34.1796875 C19.52459435 32.79101528 18.22406899 32.89491146 15 34 C14.01 34.66 13.02 35.32 12 36 C15.63 37.65 19.26 39.3 23 41 C18.88120465 42.02969884 17.15629319 41.59515137 13.203125 40.453125 C10.83739064 39.96655552 8.95881169 40.09465348 6.5625 40.3125 C1.37226622 40.48430216 -1.48536186 37.93523784 -5.34765625 34.7265625 C-7 33 -7 33 -7 31 C-7.61875 30.896875 -8.2375 30.79375 -8.875 30.6875 C-11 30 -11 30 -13 27 C-16.58357241 26.74984127 -16.58357241 26.74984127 -20 27 C-20 25.68 -20 24.36 -20 23 C-20.99 23 -21.98 23 -23 23 C-22.49396008 20.83125748 -22.00016187 19.00032373 -21 17 C-20.30003906 17.12890625 -19.60007813 17.2578125 -18.87890625 17.390625 C-14.48148234 16.79395961 -12.72169653 14.02099316 -9.9375 10.75 C-8.90553632 9.57760681 -7.87299666 8.40572033 -6.83984375 7.234375 C-6.11450439 6.4000293 -6.11450439 6.4000293 -5.37451172 5.54882812 C-3.6607667 3.61774493 -1.85393945 1.79614278 0 0 Z " fill="#062755" transform="translate(63,44)"/>
<path d="M0 0 C4.59835567 1.79842013 7.48189753 5.48957317 10.66992188 9.09960938 C13.2893046 11.88200885 14.64460362 12.95218883 18.484375 13.46875 C23.27109288 14.19207626 24.92366711 16.3484127 27.9375 19.9375 C28.43056641 20.48857422 28.92363281 21.03964844 29.43164062 21.60742188 C33 25.68059769 33 25.68059769 33 28 C29.60807637 27.40716379 27.7892243 26.23256811 25.25 23.9375 C24.63640625 23.38964844 24.0228125 22.84179688 23.390625 22.27734375 C22.70226562 21.64505859 22.70226562 21.64505859 22 21 C22.495 23.97 22.495 23.97 23 27 C18.6426774 25.52869627 15.28065866 23.16919385 11.6875 20.375 C11.13771484 19.95476563 10.58792969 19.53453125 10.02148438 19.1015625 C8.67707832 18.07279961 7.33798587 17.0370991 6 16 C5.71125 16.639375 5.4225 17.27875 5.125 17.9375 C4 20 4 20 2 21 C0.02 18.69 -1.96 16.38 -4 14 C-8.06026821 16.03013411 -10.65457376 18.42395554 -13.75 21.625 C-14.50990234 22.3984375 -14.50990234 22.3984375 -15.28515625 23.1875 C-16.52803902 24.45383339 -17.76465276 25.7263144 -19 27 C-19.33 25.68 -19.66 24.36 -20 23 C-20.99 23 -21.98 23 -23 23 C-22.49396008 20.83125748 -22.00016187 19.00032373 -21 17 C-20.30003906 17.12890625 -19.60007813 17.2578125 -18.87890625 17.390625 C-14.48148234 16.79395961 -12.72169653 14.02099316 -9.9375 10.75 C-8.90553632 9.57760681 -7.87299666 8.40572033 -6.83984375 7.234375 C-6.11450439 6.4000293 -6.11450439 6.4000293 -5.37451172 5.54882812 C-3.6607667 3.61774493 -1.85393945 1.79614278 0 0 Z " fill="#D6D8DC" transform="translate(63,44)"/>
<path d="M0 0 C2.33944736 0.28730055 4.6739143 0.61936779 7 1 C7.66 2.65 8.32 4.3 9 6 C9.82628906 5.92523438 10.65257812 5.85046875 11.50390625 5.7734375 C15.97045739 6.06288998 19.01735003 7.57250996 22.9375 9.625 C23.65043213 9.99471924 24.36336426 10.36443848 25.09790039 10.74536133 C32.94304746 14.90951157 37.66997739 19.24596438 42.875 26.5 C43.26937256 27.04615967 43.66374512 27.59231934 44.07006836 28.1550293 C46.51530135 31.738681 47.59744002 34.68871245 48 39 C45.44300708 36.67683239 43.87908487 34.25104865 42.1875 31.25 C35.55798658 20.10918354 26.67072592 12.65088713 14 9 C10.74723247 8.58009927 10.74723247 8.58009927 8 9 C7.34 9.66 6.68 10.32 6 11 C3 11.25 3 11.25 0 11 C-0.66 10.34 -1.32 9.68 -2 9 C-10.97046633 8.20290638 -18.89203222 12.81549511 -25.8125 18.125 C-31.14276775 22.73330065 -34.61023292 27.87446981 -38 34 C-38.6496875 35.11568359 -38.6496875 35.11568359 -39.3125 36.25390625 C-40.22679043 37.82534293 -41.11707227 39.41073009 -42 41 C-42.6875 39.359375 -42.6875 39.359375 -43 37 C-37.17575975 23.58892047 -27.17179752 13.31469894 -13.75 7.5625 C-10.05811983 6.19405861 -6.9743472 5.58164766 -3 6 C-2.690625 5.195625 -2.38125 4.39125 -2.0625 3.5625 C-1 1 -1 1 0 0 Z " fill="#BF9C3A" transform="translate(61,28)"/>
<path d="M0 0 C0 0.66 0 1.32 0 2 C0.99 2 1.98 2 3 2 C3.6875 4.3125 3.6875 4.3125 4 7 C0.94473779 10.6973362 -3.39373302 13.04255656 -7.375 15.625 C-8.50808594 16.37910156 -8.50808594 16.37910156 -9.6640625 17.1484375 C-13.48944256 19.63627209 -16.43250057 21.3069425 -21 22 C-23.79245093 24.45817955 -23.79245093 24.45817955 -26 27 C-26.66 26.67 -27.32 26.34 -28 26 C-24.34017795 22.2908542 -20.67392152 18.58823822 -17.00146484 14.89160156 C-15.75226298 13.63232287 -14.50485944 12.37125764 -13.25927734 11.10839844 C-11.47178925 9.29673588 -9.67799773 7.49153161 -7.8828125 5.6875 C-7.04521896 4.83442261 -7.04521896 4.83442261 -6.19070435 3.96411133 C-2.22774341 0 -2.22774341 0 0 0 Z " fill="#0A3768" transform="translate(40,65)"/>
<path d="M0 0 C3.59574725 1.79787362 5.5903054 2.87632181 8 6 C8.08810842 9.43622825 6.97479153 11.03949326 5.125 13.9375 C1.44153686 16.36858567 0.62855692 16.13039744 -3.5625 15.375 C-5.38215549 14.94595502 -7.19564274 14.48940838 -9 14 C-10.32 13.67 -11.64 13.34 -13 13 C-8.71 8.71 -4.42 4.42 0 0 Z " fill="#15447C" transform="translate(57,57)"/>
<path d="M0 0 C2.64 1.65 5.28 3.3 8 5 C8.33 4.34 8.66 3.68 9 3 C9.474375 3.86625 9.94875 4.7325 10.4375 5.625 C12.90982557 9.42788625 16.31581223 11.34780619 20.171875 13.60546875 C20.77515625 14.06566406 21.3784375 14.52585937 22 15 C22 15.99 22 16.98 22 18 C16.718795 17.48080319 13.13622624 15.67578487 8.6875 13 C8.05521484 12.63132812 7.42292969 12.26265625 6.77148438 11.8828125 C2.1945211 9.1945211 2.1945211 9.1945211 1 8 C-1.67058851 7.85884839 -4.32432238 7.95752893 -7 8 C-6.02133662 6.85373678 -5.04205413 5.70800212 -4.0625 4.5625 C-3.51722656 3.92441406 -2.97195312 3.28632812 -2.41015625 2.62890625 C-1.63204305 1.73008851 -0.84063472 0.84063472 0 0 Z " fill="#1F6D5A" transform="translate(78,66)"/>
<path d="M0 0 C8.28154936 1.41152621 15.46282482 4.64093699 23.0625 8.125 C24.32191229 8.69479204 25.58167573 9.26380859 26.84179688 9.83203125 C29.89806124 11.21379062 32.95056158 12.60325712 36 14 C32.28362292 15.17316098 29.93310625 14.53067514 26.203125 13.453125 C23.83739064 12.96655552 21.95881169 13.09465348 19.5625 13.3125 C14.37226622 13.48430216 11.51463814 10.93523784 7.65234375 7.7265625 C6 6 6 6 6 4 C5.38125 3.896875 4.7625 3.79375 4.125 3.6875 C2 3 2 3 0 0 Z " fill="#1C7450" transform="translate(50,71)"/>
<path d="M0 0 C0.66 0.99 1.32 1.98 2 3 C2.99 3.66 3.98 4.32 5 5 C3.83984375 5.38091797 3.83984375 5.38091797 2.65625 5.76953125 C-7.70465881 9.17241248 -7.70465881 9.17241248 -17.8125 13.25 C-20 14 -20 14 -23 13 C-19.17225273 8.81340142 -15.05392126 5.62179138 -10 3 C-9.34 3 -8.68 3 -8 3 C-7.67 2.01 -7.34 1.02 -7 0 C-4.05610218 -1.17755913 -3.10046087 -1.03348696 0 0 Z " fill="#0B4C46" transform="translate(51,71)"/>
<path d="M0 0 C0.495 0.99 0.495 0.99 1 2 C0.24976563 2.14695313 -0.50046875 2.29390625 -1.2734375 2.4453125 C-8.82661814 4.10054352 -14.6915369 6.53791634 -21 11 C-21.63679688 11.44085938 -22.27359375 11.88171875 -22.9296875 12.3359375 C-28.37335359 16.52151187 -31.57804263 22.13862748 -35 28 C-35.43828125 28.74765625 -35.8765625 29.4953125 -36.328125 30.265625 C-37.23403816 31.83502385 -38.11996845 33.41594322 -39 35 C-39.6875 33.359375 -39.6875 33.359375 -40 31 C-34.17575975 17.58892047 -24.17179752 7.31469894 -10.75 1.5625 C-7.05811983 0.19405861 -3.9743472 -0.41835234 0 0 Z " fill="#952436" transform="translate(58,34)"/>
<path d="M0 0 C2.29104004 1.83283204 3.24109338 2.99681712 4.1875 5.75 C4.1875 6.74 4.1875 7.73 4.1875 8.75 C2.8675 8.75 1.5475 8.75 0.1875 8.75 C0.001875 8.110625 -0.18375 7.47125 -0.375 6.8125 C-1.75496056 4.32873787 -1.75496056 4.32873787 -5.4375 4 C-6.55125 3.9175 -7.665 3.835 -8.8125 3.75 C-9.204375 4.575 -9.59625 5.4 -10 6.25 C-10.598125 7.075 -11.19625 7.9 -11.8125 8.75 C-14.5 9.0625 -14.5 9.0625 -16.8125 8.75 C-15.48290951 2.34379128 -15.48290951 2.34379128 -12.625 -0.1875 C-8.0651964 -1.91009247 -4.47379109 -1.9883516 0 0 Z " fill="#2A2739" transform="translate(69.8125,25.25)"/>
<path d="M0 0 C6.57692308 0.57692308 6.57692308 0.57692308 8 2 C8.1875 5.4375 8.1875 5.4375 8 9 C6 11 6 11 3.0625 11.375 C0 11 0 11 -1.9375 9.3125 C-3.28233625 6.38550346 -3.03115662 5.01415011 -2 2 C-1.34 1.34 -0.68 0.68 0 0 Z " fill="#A5886F" transform="translate(61,28)"/>
<path d="M0 0 C2.875 -0.125 2.875 -0.125 6 0 C6.66 0.66 7.32 1.32 8 2 C11 2.33333333 11 2.33333333 14 2 C14.66 1.34 15.32 0.68 16 0 C19.125 -0.125 19.125 -0.125 22 0 C20.40660804 2.73152907 19.51433089 4.19217531 17 6 C12.85619715 6.8928636 9.14380285 6.8928636 5 6 C2.48566911 4.19217531 1.59339196 2.73152907 0 0 Z " fill="#363239" transform="translate(53,36)"/>
<path d="M0 0 C0 0.66 0 1.32 0 2 C0.99 2 1.98 2 3 2 C3.33 3.65 3.66 5.3 4 7 C3.01 7.495 3.01 7.495 2 8 C2 6.35 2 4.7 2 3 C-3.31547451 7.04812758 -8.45041431 11.19179498 -13.37109375 15.71484375 C-15 17 -15 17 -17 17 C-15.68692628 14.10147635 -14.27315362 12.01722783 -12.03125 9.765625 C-11.17466797 8.90517578 -11.17466797 8.90517578 -10.30078125 8.02734375 C-9.70652344 7.44082031 -9.11226562 6.85429688 -8.5 6.25 C-7.90574219 5.64800781 -7.31148437 5.04601562 -6.69921875 4.42578125 C-6.12816406 3.85730469 -5.55710937 3.28882812 -4.96875 2.703125 C-4.44732422 2.18395508 -3.92589844 1.66478516 -3.38867188 1.12988281 C-2 0 -2 0 0 0 Z " fill="#8492A6" transform="translate(40,65)"/>
<path d="M0 0 C0.33 0.66 0.66 1.32 1 2 C0.24976562 2.14695313 -0.50046875 2.29390625 -1.2734375 2.4453125 C-7.96876481 3.91255047 -13.2158575 5.91588623 -18.94140625 9.6953125 C-21 11 -21 11 -24 12 C-21.86267161 6.51419046 -16.98089792 4.61343409 -12 2 C-7.81442714 0.22918072 -4.53449563 -0.21592836 0 0 Z " fill="#9B2936" transform="translate(58,34)"/>
<path d="M0 0 C2.0234375 0.43359375 2.0234375 0.43359375 4.0234375 3.43359375 C-2.53710062 7.71072379 -2.53710062 7.71072379 -6.06640625 7.03125 C-7.9765625 6.18359375 -7.9765625 6.18359375 -10.9765625 4.43359375 C-7.82309755 0.04616425 -5.03942621 -0.00837114 0 0 Z " fill="#094040" transform="translate(76.9765625,72.56640625)"/>
<path d="M0 0 C2.64 1.65 5.28 3.3 8 5 C8.33 4.34 8.66 3.68 9 3 C9.66 4.65 10.32 6.3 11 8 C9.7625 7.7525 9.7625 7.7525 8.5 7.5 C3.2100502 6.74429289 -1.80512607 6.5454353 -7 8 C-6.02133662 6.85373678 -5.04205413 5.70800212 -4.0625 4.5625 C-3.51722656 3.92441406 -2.97195312 3.28632812 -2.41015625 2.62890625 C-1.63204305 1.73008851 -0.84063472 0.84063472 0 0 Z " fill="#1F538B" transform="translate(78,66)"/>
<path d="M0 0 C5.96260189 4.82082706 10.96679794 10.22494276 16 16 C12.36535685 16 11.97159118 15.37451463 9.42578125 12.9375 C8.75869141 12.30585937 8.09160156 11.67421875 7.40429688 11.0234375 C6.71400391 10.35570313 6.02371094 9.68796875 5.3125 9 C4.61060547 8.33226563 3.90871094 7.66453125 3.18554688 6.9765625 C1.45059438 5.32422679 -0.27747207 3.6652685 -2 2 C-1.34 1.34 -0.68 0.68 0 0 Z " fill="#8191A7" transform="translate(96,71)"/>
<path d="M0 0 C0 0.33 0 0.66 0 1 C-1.0725 1.185625 -2.145 1.37125 -3.25 1.5625 C-5.69039144 2.23076135 -6.7568809 2.6966266 -8.35546875 4.69140625 C-9.32087881 6.41659751 -10.16943988 8.20599015 -11 10 C-11.99 10 -12.98 10 -14 10 C-12.67040951 3.59379128 -12.67040951 3.59379128 -9.8125 1.0625 C-6.39890571 -0.22708006 -3.61968736 -0.21292279 0 0 Z " fill="#171C3B" transform="translate(67,24)"/>
<path d="M0 0 C0.33 0.66 0.66 1.32 1 2 C2.2065625 1.87625 2.2065625 1.87625 3.4375 1.75 C8.18189247 2.08293982 11.78455517 3.90164524 16 6 C15.34 6.66 14.68 7.32 14 8 C12.205625 7.2884375 12.205625 7.2884375 10.375 6.5625 C6.93585762 5.26517227 3.66104396 4.45763049 0 4 C0 2.68 0 1.36 0 0 Z " fill="#BA6D36" transform="translate(69,32)"/>
<path d="M0 0 C3.98381075 2.16264012 6.88983545 4.71211176 10 8 C6.98782888 7.35550393 4.48344164 6.34977818 1.75 4.9375 C1.04359375 4.57527344 0.3371875 4.21304688 -0.390625 3.83984375 C-0.92171875 3.56269531 -1.4528125 3.28554687 -2 3 C-1.34 2.67 -0.68 2.34 0 2 C0 1.34 0 0.68 0 0 Z " fill="#0D4951" transform="translate(100,82)"/>
<path d="M0 0 C4.22489602 0.53280216 6.54080716 1.87678199 9.8125 4.5625 C10.60269531 5.20316406 11.39289063 5.84382813 12.20703125 6.50390625 C12.79871094 6.99761719 13.39039062 7.49132813 14 8 C13.34 8.66 12.68 9.32 12 10 C9.99708788 8.52464063 7.99763223 7.04497707 6 5.5625 C5.42765625 5.14162109 4.8553125 4.72074219 4.265625 4.28710938 C2.82546081 3.21555864 1.41048004 2.11033324 0 1 C0 0.67 0 0.34 0 0 Z " fill="#D09C38" transform="translate(84,39)"/>
<path d="M0 0 C1.134375 0.020625 2.26875 0.04125 3.4375 0.0625 C3.7675 1.0525 4.0975 2.0425 4.4375 3.0625 C3.344375 2.959375 2.25125 2.85625 1.125 2.75 C-0.7003125 2.9046875 -0.7003125 2.9046875 -2.5625 3.0625 C-4.57114359 5.4351974 -4.57114359 5.4351974 -5.5625 8.0625 C-6.2225 7.7325 -6.8825 7.4025 -7.5625 7.0625 C-4.14194277 0.07266566 -4.14194277 0.07266566 0 0 Z " fill="#473340" transform="translate(63.5625,25.9375)"/>
<path d="M0 0 C0.66 0.99 1.32 1.98 2 3 C1.3203125 5.48046875 1.3203125 5.48046875 0.125 8.1875 C-0.26429687 9.08855469 -0.65359375 9.98960938 -1.0546875 10.91796875 C-1.36664063 11.60503906 -1.67859375 12.29210937 -2 13 C-2.33 13 -2.66 13 -3 13 C-2.52060632 8.28596212 -2.03165952 4.33420699 0 0 Z " fill="#3C2348" transform="translate(17,67)"/>
<path d="M0 0 C0.66 0.99 1.32 1.98 2 3 C0.8803014 4.00593243 -0.2459412 5.0045849 -1.375 6 C-2.00148438 6.556875 -2.62796875 7.11375 -3.2734375 7.6875 C-5 9 -5 9 -7 9 C-5.44499019 5.18315774 -2.96404505 2.80804268 0 0 Z " fill="#516785" transform="translate(30,73)"/>
<path d="M0 0 C3.53790403 3.69172595 3.59115883 7.09390595 4 12 C2 11 2 11 1.11328125 9.00390625 C0.84902344 8.19824219 0.58476563 7.39257812 0.3125 6.5625 C0.04050781 5.75941406 -0.23148437 4.95632812 -0.51171875 4.12890625 C-1 2 -1 2 0 0 Z " fill="#444E47" transform="translate(109,65)"/>
<path d="M0 0 C1.65 0.33 3.3 0.66 5 1 C4.67 2.32 4.34 3.64 4 5 C2.35 4.67 0.7 4.34 -1 4 C-0.67 2.68 -0.34 1.36 0 0 Z " fill="#F2C05B" transform="translate(62,31)"/>
<path d="M0 0 C-1.55500981 3.81684226 -4.03595495 6.19195732 -7 9 C-7.99 8.67 -8.98 8.34 -10 8 C-8.71451591 6.66070495 -7.42141845 5.32871357 -6.125 4 C-5.04605469 2.88625 -5.04605469 2.88625 -3.9453125 1.75 C-2 0 -2 0 0 0 Z " fill="#2E3953" transform="translate(14,5)"/>
<path d="M0 0 C0.66 0.66 1.32 1.32 2 2 C-1.3 4.97 -4.6 7.94 -8 11 C-8.66 10.67 -9.32 10.34 -10 10 C-6.7 6.7 -3.4 3.4 0 0 Z " fill="#264570" transform="translate(22,81)"/>
<path d="M0 0 C0.66 0.33 1.32 0.66 2 1 C1.67 1.99 1.34 2.98 1 4 C-1.06640625 4.94921875 -1.06640625 4.94921875 -3.5625 5.6875 C-4.38878906 5.93886719 -5.21507812 6.19023438 -6.06640625 6.44921875 C-6.70449219 6.63097656 -7.34257812 6.81273438 -8 7 C-6.88424427 3.65273281 -6.48655378 3.37920252 -3.5625 1.75 C-2.386875 1.1725 -1.21125 0.595 0 0 Z " fill="#04354B" transform="translate(28,82)"/>
<path d="M0 0 C0.66 0.99 1.32 1.98 2 3 C0.68 5.31 -0.64 7.62 -2 10 C-2.6875 8.375 -2.6875 8.375 -3 6 C-1.5625 2.75 -1.5625 2.75 0 0 Z " fill="#74243C" transform="translate(21,59)"/>
<path d="M0 0 C2.93200474 2.85276137 5.64315404 5.65079784 8 9 C3.7257442 7.4169423 1.73468206 4.49431596 -1 1 C-0.67 0.67 -0.34 0.34 0 0 Z " fill="#445D80" transform="translate(104,79)"/>
<path d="M0 0 C2.52259061 1.97420135 2.9929808 2.96745642 3.6875 6.1875 C3.790625 7.115625 3.89375 8.04375 4 9 C1.27573689 6.64722731 0.1858237 4.37503669 -1 1 C-0.67 0.67 -0.34 0.34 0 0 Z " fill="#88793E" transform="translate(105,58)"/>
<path d="M0 0 C0.99 1.32 1.98 2.64 3 4 C0 5 0 5 -2.1875 4.0625 C-2.785625 3.711875 -3.38375 3.36125 -4 3 C-4 2.34 -4 1.68 -4 1 C-2.68 1.33 -1.36 1.66 0 2 C0 1.34 0 0.68 0 0 Z " fill="#427197" transform="translate(86,69)"/>
</svg>
